<svg width="124" height="124" viewBox="0 0 124 124" fill="none" xmlns="http://www.w3.org/2000/svg">
<path d="M33.1111 69.1111H29.4844C27.5644 69.1111 26 67.2622 26 65.0044V34.1067C26 31.8489 27.8489 30 30.1067 30H80.56C82.8178 30 84.6667 31.8489 84.6667 34.1067V49.5556" stroke="white" stroke-width="2" stroke-linecap="round" stroke-linejoin="round"/>
<path d="M84.6667 38.8887H26V45.9998H84.6667V38.8887Z" stroke="white" stroke-width="2" stroke-linecap="round" stroke-linejoin="round"/>
<path d="M93.0043 54.8887H42.551C40.283 54.8887 38.4443 56.7273 38.4443 58.9953V89.8931C38.4443 92.1612 40.283 93.9998 42.551 93.9998H93.0043C95.2724 93.9998 97.111 92.1612 97.111 89.8931V58.9953C97.111 56.7273 95.2724 54.8887 93.0043 54.8887Z" stroke="white" stroke-width="2" stroke-linecap="round" stroke-linejoin="round"/>
<path d="M47.333 85.1113H56.2219" stroke="white" stroke-width="2" stroke-linecap="round" stroke-linejoin="round"/>
<path d="M63.333 85.1113H72.2219" stroke="white" stroke-width="2" stroke-linecap="round" stroke-linejoin="round"/>
<path d="M79.333 85.1113H88.2219" stroke="white" stroke-width="2" stroke-linecap="round" stroke-linejoin="round"/>
<path d="M83.7775 74.4446C86.2321 74.4446 88.2219 72.4547 88.2219 70.0001C88.2219 67.5455 86.2321 65.5557 83.7775 65.5557C81.3229 65.5557 79.333 67.5455 79.333 70.0001C79.333 72.4547 81.3229 74.4446 83.7775 74.4446Z" stroke="white" stroke-width="2" stroke-linecap="round" stroke-linejoin="round"/>
</svg>
